<svg data-v-423bf9ae="" xmlns="http://www.w3.org/2000/svg" viewBox="0 0 669 90" class="iconLeftSlogan"><!----><!----><!----><g data-v-423bf9ae="" id="b7f1dea2-7a49-4857-b62e-c10f9523b80a" fill="#000000" transform="matrix(4.636785312648574,0,0,4.636785312648574,193.60196130503633,-42.612055554405)"><path d="M4.25 10.47L4.25 10.47L4.25 10.47Q3.41 10.47 2.94 10.68L2.94 10.68L2.94 10.68Q2.08 11.08 2.08 11.73L2.08 11.73L2.08 11.73Q2.08 12.08 2.28 12.28L2.28 12.28L2.28 12.28Q2.80 12.84 3.66 13.22L3.66 13.22L3.66 13.22Q4.17 13.45 5.14 13.80L5.14 13.80L5.14 13.80Q6.12 14.16 6.46 14.31L6.46 14.31L6.46 14.31Q6.80 14.47 7.22 14.74L7.22 14.74L7.22 14.74Q7.64 15.00 7.92 15.29L7.92 15.29L7.92 15.29Q8.57 15.98 8.57 16.87L8.57 16.87L8.57 16.87Q8.57 17.51 8.23 18.02L8.23 18.02L8.23 18.02Q7.88 18.53 7.31 18.84L7.31 18.84L7.31 18.84Q6.13 19.48 4.61 19.48L4.61 19.48L4.61 19.48Q2.58 19.48 1.29 18.77L1.29 18.77L1.29 18.77Q0.85 18.53 0.58 18.16L0.58 18.16L0.58 18.16Q0.31 17.78 0.31 17.35L0.31 17.35L0.31 17.35Q0.31 16.93 0.57 16.68L0.57 16.68L0.57 16.68Q0.83 16.43 1.31 16.43L1.31 16.43L1.31 16.43Q1.79 16.43 2.06 16.77L2.06 16.77L2.06 16.77Q2.33 17.10 2.33 17.64L2.33 17.64L2.33 17.64Q2.33 17.86 2.29 18.10L2.29 18.10L2.29 18.10Q3.33 18.63 4.51 18.63L4.51 18.63L4.51 18.63Q5.56 18.63 6.30 18.32L6.30 18.32L6.30 18.32Q7.14 17.96 7.14 17.06L7.14 17.06L7.14 17.06Q7.14 16.13 5.26 15.41L5.26 15.41L5.26 15.41Q4.95 15.29 4.29 15.07L4.29 15.07L4.29 15.07Q2.95 14.60 2.28 14.25L2.28 14.25L2.28 14.25Q0.62 13.37 0.62 12.05L0.62 12.05L0.62 12.05Q0.62 11.43 0.95 10.94L0.95 10.94L0.95 10.94Q1.29 10.46 1.85 10.18L1.85 10.18L1.85 10.18Q2.98 9.62 4.50 9.62L4.50 9.62L4.50 9.62Q6.28 9.62 7.38 10.21L7.38 10.21L7.38 10.21Q7.77 10.42 8.01 10.76L8.01 10.76L8.01 10.76Q8.25 11.10 8.25 11.53L8.25 11.53L8.25 11.53Q8.25 11.96 7.95 12.23L7.95 12.23L7.95 12.23Q7.66 12.51 7.22 12.51L7.22 12.51L7.22 12.51Q6.78 12.51 6.58 12.47L6.58 12.47L6.58 12.47Q6.49 11.27 6.02 10.87L6.02 10.87L6.02 10.87Q5.54 10.47 4.25 10.47ZM9.73 17.48L9.73 13.66L9.32 13.67L9.32 13.67Q9.06 13.67 8.95 13.62L8.95 13.62L8.95 13.62Q8.83 13.57 8.83 13.42L8.83 13.42L8.83 13.42Q8.83 13.26 8.97 13.14L8.97 13.14L8.97 13.14Q9.10 13.01 9.27 12.94L9.27 12.94L9.27 12.94Q9.74 12.75 9.83 12.62L9.83 12.62L9.83 12.62Q9.93 12.48 10.11 12.03L10.11 12.03L10.11 12.03Q10.57 10.90 10.88 10.90L10.88 10.90L10.88 10.90Q11.03 10.90 11.06 11.24L11.06 11.24L11.06 11.24Q11.08 11.58 11.08 11.76L11.08 11.76L11.08 11.76Q11.09 11.94 11.08 12.29L11.08 12.29L11.08 12.29Q11.07 12.64 11.07 12.78L11.07 12.78L12.70 12.78L12.70 12.78Q12.94 12.78 13.10 12.90L13.10 12.90L13.10 12.90Q13.27 13.02 13.27 13.22L13.27 13.22L13.27 13.22Q13.27 13.42 13.11 13.53L13.11 13.53L13.11 13.53Q12.95 13.64 12.71 13.64L12.71 13.64L11.07 13.64L11.07 17.13L11.07 17.13Q11.07 18.61 11.81 18.61L11.81 18.61L11.81 18.61Q12.02 18.61 12.42 18.49L12.42 18.49L12.42 18.49Q12.82 18.36 12.95 18.36L12.95 18.36L12.95 18.36Q13.23 18.36 13.23 18.68L13.23 18.68L13.23 18.68Q13.23 18.94 12.57 19.19L12.57 19.19L12.57 19.19Q11.91 19.44 11.21 19.44L11.21 19.44L11.21 19.44Q10.52 19.44 10.13 18.90L10.13 18.90L10.13 18.90Q9.73 18.36 9.73 17.48L9.73 17.48ZM15.01 18.57L15.01 18.57L15.01 18.57Q14.06 17.64 14.06 16.11L14.06 16.11L14.06 16.11Q14.06 14.57 15.02 13.61L15.02 13.61L15.02 13.61Q15.97 12.65 17.45 12.65L17.45 12.65L17.45 12.65Q18.61 12.65 19.42 13.40L19.42 13.40L19.42 13.40Q20.22 14.16 20.22 15.30L20.22 15.30L20.22 15.30Q20.22 15.85 19.35 15.85L19.35 15.85L15.39 15.85L15.39 15.85Q15.40 16.96 16.11 17.72L16.11 17.72L16.11 17.72Q16.81 18.48 17.88 18.48L17.88 18.48L17.88 18.48Q18.59 18.48 19.26 18.06L19.26 18.06L19.26 18.06Q19.62 17.84 19.72 17.84L19.72 17.84L19.72 17.84Q19.82 17.84 19.94 17.94L19.94 17.94L19.94 17.94Q20.07 18.04 20.07 18.18L20.07 18.18L20.07 18.18Q20.07 18.56 19.59 18.88L19.59 18.88L19.59 18.88Q19.11 19.20 18.53 19.35L18.53 19.35L18.53 19.35Q17.94 19.50 17.51 19.50L17.51 19.50L17.51 19.50Q15.96 19.50 15.01 18.57ZM18.96 15.13L18.96 15.13L18.96 15.13Q18.95 14.35 18.55 13.86L18.55 13.86L18.55 13.86Q18.16 13.36 17.39 13.36L17.39 13.36L17.39 13.36Q16.63 13.36 16.06 13.91L16.06 13.91L16.06 13.91Q15.49 14.46 15.46 15.16L15.46 15.16L17.06 15.16L17.06 15.16Q18.12 15.16 18.96 15.13ZM27.13 16.17L27.13 16.17L27.13 16.17Q27.13 14.59 26.21 13.87L26.21 13.87L26.21 13.87Q25.73 13.50 25.07 13.50L25.07 13.50L25.07 13.50Q23.11 13.50 23.11 15.71L23.11 15.71L23.11 17.96L23.11 17.96Q23.66 18.68 25.01 18.68L25.01 18.68L25.01 18.68Q26.00 18.68 26.56 17.97L26.56 17.97L26.56 17.97Q27.13 17.26 27.13 16.17ZM22.72 22.12L22.72 22.12L22.13 22.13L22.13 22.13Q21.23 22.13 21.02 21.85L21.02 21.85L21.02 21.85Q20.92 21.73 20.92 21.56L20.92 21.56L20.92 21.56Q20.92 21.38 21.06 21.31L21.06 21.31L21.06 21.31Q21.20 21.25 21.37 21.24L21.37 21.24L21.37 21.24Q21.53 21.23 21.67 21.13L21.67 21.13L21.67 21.13Q21.81 21.03 21.81 20.82L21.81 20.82L21.81 14.65L21.81 14.65Q21.81 14.16 21.73 13.97L21.73 13.97L21.73 13.97Q21.66 13.78 21.41 13.69L21.41 13.69L21.41 13.69Q21.38 13.67 21.14 13.62L21.14 13.62L21.14 13.62Q20.62 13.49 20.62 13.28L20.62 13.28L20.62 13.28Q20.62 12.74 22.00 12.74L22.00 12.74L22.00 12.74Q22.58 12.74 22.81 12.88L22.81 12.88L22.81 12.88Q23.04 13.02 23.04 13.47L23.04 13.47L23.04 13.47Q23.04 13.60 23.04 13.67L23.04 13.67L23.04 13.67Q23.56 13.16 24.10 12.89L24.10 12.89L24.10 12.89Q24.63 12.63 25.46 12.63L25.46 12.63L25.46 12.63Q26.28 12.63 27.01 13.09L27.01 13.09L27.01 13.09Q27.73 13.56 28.10 14.32L28.10 14.32L28.10 14.32Q28.46 15.08 28.46 16.02L28.46 16.02L28.46 16.02Q28.46 17.50 27.49 18.46L27.49 18.46L27.49 18.46Q26.52 19.43 25.03 19.43L25.03 19.43L25.03 19.43Q24.19 19.43 23.11 18.87L23.11 18.87L23.11 20.82L23.11 20.82Q23.11 21.21 23.55 21.24L23.55 21.24L23.55 21.24Q23.99 21.26 23.99 21.59L23.99 21.59L23.99 21.59Q23.99 21.96 23.57 22.05L23.57 22.05L23.57 22.05Q23.27 22.12 22.72 22.12ZM35.94 19.32L35.94 19.32L35.36 19.33L35.36 19.33Q34.46 19.33 34.25 19.05L34.25 19.05L34.25 19.05Q34.15 18.93 34.15 18.75L34.15 18.75L34.15 18.75Q34.15 18.58 34.29 18.51L34.29 18.51L34.29 18.51Q34.43 18.44 34.59 18.44L34.59 18.44L34.59 18.44Q34.76 18.43 34.90 18.33L34.90 18.33L34.90 18.33Q35.03 18.23 35.03 18.01L35.03 18.01L35.04 16.02L35.04 16.02Q35.04 14.77 34.74 14.17L34.74 14.17L34.74 14.17Q34.41 13.50 33.37 13.50L33.37 13.50L33.37 13.50Q32.28 13.50 31.84 14.19L31.84 14.19L31.84 14.19Q31.45 14.83 31.45 16.06L31.45 16.06L31.45 18.01L31.45 18.01Q31.45 18.41 31.89 18.43L31.89 18.43L31.89 18.43Q32.33 18.46 32.33 18.79L32.33 18.79L32.33 18.79Q32.33 19.16 31.91 19.25L31.91 19.25L31.91 19.25Q31.61 19.32 31.06 19.32L31.06 19.32L30.47 19.33L30.47 19.33Q29.57 19.33 29.36 19.05L29.36 19.05L29.36 19.05Q29.26 18.93 29.26 18.75L29.26 18.75L29.26 18.75Q29.26 18.58 29.40 18.51L29.40 18.51L29.40 18.51Q29.54 18.44 29.71 18.44L29.71 18.44L29.71 18.44Q29.87 18.43 30.01 18.33L30.01 18.33L30.01 18.33Q30.15 18.23 30.15 18.01L30.15 18.01L30.15 10.57L30.15 10.57Q30.15 10.17 29.65 10.09L29.65 10.09L29.65 10.09Q29.31 10.04 29.24 9.97L29.24 9.97L29.24 9.97Q29.17 9.91 29.17 9.75L29.17 9.75L29.17 9.75Q29.17 9.60 29.31 9.48L29.31 9.48L29.31 9.48Q29.46 9.36 29.69 9.30L29.69 9.30L29.69 9.30Q30.10 9.19 30.60 9.19L30.60 9.19L30.60 9.19Q31.45 9.19 31.45 9.70L31.45 9.70L31.45 13.67L31.45 13.67Q32.38 12.62 33.80 12.62L33.80 12.62L33.80 12.62Q35.23 12.62 35.78 13.35L35.78 13.35L35.78 13.35Q36.34 14.08 36.34 15.55L36.34 15.55L36.33 18.01L36.33 18.01Q36.33 18.41 36.77 18.43L36.77 18.43L36.77 18.43Q37.21 18.46 37.21 18.79L37.21 18.79L37.21 18.79Q37.21 19.16 36.80 19.25L36.80 19.25L36.80 19.25Q36.49 19.32 35.94 19.32ZM39.19 14.98L39.19 14.98L39.19 14.98Q38.94 14.98 38.62 14.78L38.62 14.78L38.62 14.78Q38.30 14.58 38.30 14.26L38.30 14.26L38.30 14.26Q38.30 13.93 38.49 13.64L38.49 13.64L38.49 13.64Q38.67 13.36 38.96 13.18L38.96 13.18L38.96 13.18Q39.26 13.00 39.65 12.87L39.65 12.87L39.65 12.87Q40.36 12.65 41.18 12.65L41.18 12.65L41.18 12.65Q42.56 12.65 43.19 13.26L43.19 13.26L43.19 13.26Q43.81 13.87 43.81 15.28L43.81 15.28L43.80 17.29L43.80 17.29Q43.80 18.03 43.99 18.21L43.99 18.21L43.99 18.21Q44.04 18.26 44.29 18.33L44.29 18.33L44.29 18.33Q44.99 18.55 44.99 18.67L44.99 18.67L44.99 18.67Q44.99 19.39 43.52 19.39L43.52 19.39L43.52 19.39Q42.96 19.39 42.80 19.14L42.80 19.14L42.80 19.14Q42.63 18.89 42.62 18.25L42.62 18.25L42.62 18.25Q42.31 18.80 41.68 19.14L41.68 19.14L41.68 19.14Q41.05 19.48 40.33 19.48L40.33 19.48L40.33 19.48Q39.61 19.48 39.12 19.30L39.12 19.30L39.12 19.30Q38.62 19.11 38.31 18.70L38.31 18.70L38.31 18.70Q37.99 18.29 37.99 17.81L37.99 17.81L37.99 17.81Q37.99 17.33 38.10 17.04L38.10 17.04L38.10 17.04Q38.21 16.75 38.38 16.55L38.38 16.55L38.38 16.55Q38.54 16.35 38.82 16.19L38.82 16.19L38.82 16.19Q39.11 16.04 39.35 15.94L39.35 15.94L39.35 15.94Q39.60 15.85 39.99 15.78L39.99 15.78L39.99 15.78Q40.56 15.67 40.95 15.62L40.95 15.62L40.95 15.62Q41.34 15.58 41.36 15.57L41.36 15.57L41.36 15.57Q41.40 15.57 41.83 15.52L41.83 15.52L41.83 15.52Q42.25 15.48 42.50 15.34L42.50 15.34L42.50 15.34Q42.50 14.04 42.15 13.64L42.15 13.64L42.15 13.64Q41.84 13.30 41.14 13.30L41.14 13.30L41.14 13.30Q40.43 13.30 40.08 13.66L40.08 13.66L40.08 13.66Q39.73 14.02 39.73 14.80L39.73 14.80L39.74 14.95L39.74 14.95Q39.45 14.98 39.19 14.98ZM42.50 15.96L42.50 15.96L42.50 15.96Q42.03 16.13 41.45 16.19L41.45 16.19L41.45 16.19Q40.87 16.26 40.53 16.34L40.53 16.34L40.53 16.34Q40.20 16.43 39.97 16.56L39.97 16.56L39.97 16.56Q39.45 16.86 39.45 17.60L39.45 17.60L39.45 17.60Q39.45 18.77 40.82 18.77L40.82 18.77L40.82 18.77Q42 18.77 42.31 17.64L42.31 17.64L42.31 17.64Q42.50 17.00 42.50 15.96ZM47.66 19.32L47.66 19.32L47.07 19.33L47.07 19.33Q46.18 19.33 45.96 19.05L45.96 19.05L45.96 19.05Q45.87 18.93 45.87 18.75L45.87 18.75L45.87 18.75Q45.87 18.58 46.01 18.51L46.01 18.51L46.01 18.51Q46.14 18.44 46.31 18.44L46.31 18.44L46.31 18.44Q46.48 18.43 46.61 18.33L46.61 18.33L46.61 18.33Q46.75 18.23 46.75 18.01L46.75 18.01L46.75 14.11L46.75 14.11Q46.75 13.71 46.26 13.63L46.26 13.63L46.26 13.63Q45.92 13.58 45.85 13.51L45.85 13.51L45.85 13.51Q45.77 13.45 45.77 13.28L45.77 13.28L45.77 13.28Q45.77 13.11 46.01 12.97L46.01 12.97L46.01 12.97Q46.42 12.73 47.03 12.73L47.03 12.73L47.03 12.73Q47.64 12.73 47.81 12.90L47.81 12.90L47.81 12.90Q47.99 13.08 47.99 13.68L47.99 13.68L47.99 13.68Q48.92 12.62 50.57 12.62L50.57 12.62L50.57 12.62Q51.90 12.62 52.46 13.35L52.46 13.35L52.46 13.35Q53.01 14.08 53.01 15.55L53.01 15.55L53.01 18.01L53.01 18.01Q53.01 18.41 53.45 18.43L53.45 18.43L53.45 18.43Q53.89 18.46 53.89 18.79L53.89 18.79L53.89 18.79Q53.89 19.15 53.47 19.25L53.47 19.25L53.47 19.25Q53.16 19.32 52.60 19.32L52.60 19.32L52.01 19.33L52.01 19.33Q51.12 19.33 50.91 19.05L50.91 19.05L50.91 19.05Q50.81 18.93 50.81 18.75L50.81 18.75L50.81 18.75Q50.81 18.58 50.95 18.51L50.95 18.51L50.95 18.51Q51.08 18.44 51.25 18.44L51.25 18.44L51.25 18.44Q51.42 18.43 51.56 18.33L51.56 18.33L51.56 18.33Q51.69 18.23 51.69 18.01L51.69 18.01L51.69 16.02L51.69 16.02Q51.69 14.75 51.40 14.16L51.40 14.16L51.40 14.16Q51.07 13.50 50.08 13.50L50.08 13.50L50.08 13.50Q48.88 13.50 48.45 14.14L48.45 14.14L48.45 14.14Q48.05 14.74 48.05 16.06L48.05 16.06L48.05 18.01L48.05 18.01Q48.05 18.41 48.49 18.43L48.49 18.43L48.49 18.43Q48.93 18.46 48.93 18.79L48.93 18.79L48.93 18.79Q48.93 19.16 48.51 19.25L48.51 19.25L48.51 19.25Q48.21 19.32 47.66 19.32ZM65.54 16.88L65.54 16.88L65.54 16.88Q66.02 16.88 66.02 17.55L66.02 17.55L66.02 17.55Q66.02 18.21 65.54 18.78L65.54 18.78L65.54 18.78Q65.05 19.35 64.41 19.35L64.41 19.35L59.34 19.32L59.34 19.32Q58.28 19.32 58.00 19.25L58.00 19.25L58.00 19.25Q57.42 19.11 57.42 18.74L57.42 18.74L57.42 18.74Q57.42 18.60 57.50 18.55L57.50 18.55L57.50 18.55Q57.59 18.50 57.63 18.49L57.63 18.49L57.63 18.49Q57.67 18.47 57.89 18.42L57.89 18.42L57.89 18.42Q58.40 18.27 58.52 17.97L58.52 17.97L58.52 17.97Q58.60 17.59 58.60 17.19L58.60 17.19L58.60 11.85L58.60 11.85Q58.60 10.95 58.28 10.78L58.28 10.78L58.28 10.78Q58.11 10.69 57.57 10.51L57.57 10.51L57.57 10.51Q57.42 10.47 57.42 10.29L57.42 10.29L57.42 10.29Q57.42 9.93 57.95 9.80L57.95 9.80L57.95 9.80Q58.28 9.72 59.35 9.72L59.35 9.72L59.35 9.72Q60.42 9.72 60.70 9.79L60.70 9.79L60.70 9.79Q61.29 9.93 61.29 10.29L61.29 10.29L61.29 10.29Q61.29 10.45 61.18 10.49L61.18 10.49L61.18 10.49Q61.07 10.54 61.05 10.55L61.05 10.55L61.05 10.55Q61.02 10.56 60.94 10.58L60.94 10.58L60.94 10.58Q60.86 10.60 60.83 10.61L60.83 10.61L60.83 10.61Q60.81 10.62 60.72 10.65L60.72 10.65L60.72 10.65Q60.63 10.67 60.59 10.68L60.59 10.68L60.59 10.68Q60.55 10.70 60.48 10.73L60.48 10.73L60.48 10.73Q60.35 10.78 60.29 10.87L60.29 10.87L60.29 10.87Q60.10 11.10 60.10 11.85L60.10 11.85L60.10 18.18L60.10 18.18Q60.10 18.48 60.74 18.48L60.74 18.48L60.74 18.48Q62.14 18.48 63.23 18.38L63.23 18.38L63.23 18.38Q64.32 18.27 64.46 18.18L64.46 18.18L64.46 18.18Q64.55 18.07 64.70 17.76L64.70 17.76L64.70 17.76Q64.84 17.45 64.86 17.41L64.86 17.41L64.86 17.41Q65.15 16.88 65.54 16.88ZM71.24 11.83L71.24 11.83L71.24 11.83Q70.90 11.83 70.66 11.59L70.66 11.59L70.66 11.59Q70.42 11.36 70.42 11.08L70.42 11.08L70.42 11.08Q70.42 10.79 70.65 10.55L70.65 10.55L70.65 10.55Q70.88 10.32 71.22 10.32L71.22 10.32L71.22 10.32Q71.56 10.32 71.81 10.52L71.81 10.52L71.81 10.52Q72.07 10.73 72.07 11.06L72.07 11.06L72.07 11.06Q72.07 11.39 71.82 11.61L71.82 11.61L71.82 11.61Q71.57 11.83 71.24 11.83ZM68.30 11.07L68.30 11.07L68.30 11.07Q68.30 11.36 68.07 11.59L68.07 11.59L68.07 11.59Q67.83 11.83 67.50 11.83L67.50 11.83L67.50 11.83Q67.17 11.83 66.91 11.62L66.91 11.62L66.91 11.62Q66.65 11.41 66.65 11.10L66.65 11.10L66.65 11.10Q66.65 10.79 66.89 10.55L66.89 10.55L66.89 10.55Q67.12 10.32 67.46 10.32L67.46 10.32L67.46 10.32Q67.79 10.32 68.04 10.52L68.04 10.52L68.04 10.52Q68.30 10.73 68.30 11.07ZM69.82 19.49L69.82 19.49L69.82 19.49Q68.27 19.49 67.33 18.52L67.33 18.52L67.33 18.52Q66.38 17.54 66.38 16.04L66.38 16.04L66.38 16.04Q66.38 15.05 66.88 14.27L66.88 14.27L66.88 14.27Q67.38 13.49 68.23 13.07L68.23 13.07L68.23 13.07Q69.08 12.66 70.13 12.66L70.13 12.66L70.13 12.66Q71.63 12.66 72.61 13.60L72.61 13.60L72.61 13.60Q73.59 14.53 73.59 16.02L73.59 16.02L73.59 16.02Q73.59 17.04 73.09 17.84L73.09 17.84L73.09 17.84Q72.58 18.63 71.73 19.06L71.73 19.06L71.73 19.06Q70.88 19.49 69.82 19.49ZM70.10 18.73L70.10 18.73L70.10 18.73Q71.11 18.73 71.69 18.04L71.69 18.04L71.69 18.04Q72.26 17.35 72.26 16.20L72.26 16.20L72.26 16.20Q72.26 15.05 71.60 14.22L71.60 14.22L71.60 14.22Q70.94 13.38 69.91 13.38L69.91 13.38L69.91 13.38Q68.89 13.38 68.33 14.09L68.33 14.09L68.33 14.09Q67.78 14.79 67.78 15.93L67.78 15.93L67.78 15.93Q67.78 17.08 68.43 17.90L68.43 17.90L68.43 17.90Q69.08 18.73 70.10 18.73ZM80.13 17.99L80.13 17.99L80.13 17.99Q80.44 17.99 80.44 18.27L80.44 18.27L80.44 18.27Q80.44 18.43 80.34 18.53L80.34 18.53L80.34 18.53Q79.43 19.50 77.73 19.50L77.73 19.50L77.73 19.50Q76.03 19.50 75.03 18.58L75.03 18.58L75.03 18.58Q74.04 17.66 74.04 16.14L74.04 16.14L74.04 16.14Q74.04 15.15 74.52 14.35L74.52 14.35L74.52 14.35Q75.00 13.54 75.83 13.09L75.83 13.09L75.83 13.09Q76.67 12.64 77.68 12.64L77.68 12.64L77.68 12.64Q79.09 12.64 79.86 13.37L79.86 13.37L79.86 13.37Q80.26 13.76 80.26 14.28L80.26 14.28L80.26 14.28Q80.26 14.59 80.00 14.80L80.00 14.80L80.00 14.80Q79.75 15.01 79.39 15.01L79.39 15.01L79.39 15.01Q79.04 15.01 78.88 14.95L78.88 14.95L78.88 14.95Q78.83 14.18 78.56 13.76L78.56 13.76L78.56 13.76Q78.29 13.35 77.66 13.35L77.66 13.35L77.66 13.35Q76.62 13.35 76.03 14.01L76.03 14.01L76.03 14.01Q75.43 14.68 75.43 15.80L75.43 15.80L75.43 15.80Q75.43 16.92 76.19 17.75L76.19 17.75L76.19 17.75Q76.95 18.57 78.09 18.57L78.09 18.57L78.09 18.57Q78.77 18.57 79.75 18.09L79.75 18.09L79.75 18.09Q79.97 17.99 80.13 17.99ZM88.07 19.32L88.07 19.32L87.49 19.33L87.49 19.33Q86.59 19.33 86.38 19.05L86.38 19.05L86.38 19.05Q86.28 18.93 86.28 18.75L86.28 18.75L86.28 18.75Q86.28 18.58 86.42 18.51L86.42 18.51L86.42 18.51Q86.56 18.44 86.72 18.44L86.72 18.44L86.72 18.44Q86.89 18.43 87.03 18.33L87.03 18.33L87.03 18.33Q87.17 18.23 87.17 18.01L87.17 18.01L87.17 16.02L87.17 16.02Q87.17 14.77 86.87 14.17L86.87 14.17L86.87 14.17Q86.54 13.50 85.50 13.50L85.50 13.50L85.50 13.50Q84.41 13.50 83.97 14.19L83.97 14.19L83.97 14.19Q83.58 14.83 83.58 16.06L83.58 16.06L83.58 18.01L83.58 18.01Q83.58 18.41 84.02 18.43L84.02 18.43L84.02 18.43Q84.46 18.46 84.46 18.79L84.46 18.79L84.46 18.79Q84.46 19.16 84.04 19.25L84.04 19.25L84.04 19.25Q83.74 19.32 83.19 19.32L83.19 19.32L82.60 19.33L82.60 19.33Q81.70 19.33 81.49 19.05L81.49 19.05L81.49 19.05Q81.40 18.93 81.40 18.75L81.40 18.75L81.40 18.75Q81.40 18.58 81.53 18.51L81.53 18.51L81.53 18.51Q81.67 18.44 81.84 18.44L81.84 18.44L81.84 18.44Q82.00 18.43 82.14 18.33L82.14 18.33L82.14 18.33Q82.28 18.23 82.28 18.01L82.28 18.01L82.28 10.57L82.28 10.57Q82.28 10.17 81.79 10.09L81.79 10.09L81.79 10.09Q81.44 10.04 81.37 9.97L81.37 9.97L81.37 9.97Q81.30 9.91 81.30 9.75L81.30 9.75L81.30 9.75Q81.30 9.60 81.44 9.48L81.44 9.48L81.44 9.48Q81.59 9.36 81.82 9.30L81.82 9.30L81.82 9.30Q82.23 9.19 82.74 9.19L82.74 9.19L82.74 9.19Q83.58 9.19 83.58 9.70L83.58 9.70L83.58 13.67L83.58 13.67Q84.51 12.62 85.93 12.62L85.93 12.62L85.93 12.62Q87.36 12.62 87.91 13.35L87.91 13.35L87.91 13.35Q88.47 14.08 88.47 15.55L88.47 15.55L88.46 18.01L88.46 18.01Q88.46 18.41 88.90 18.43L88.90 18.43L88.90 18.43Q89.35 18.46 89.35 18.79L89.35 18.79L89.35 18.79Q89.35 19.16 88.94 19.25L88.94 19.25L88.94 19.25Q88.62 19.32 88.07 19.32ZM90.87 18.57L90.87 18.57L90.87 18.57Q89.92 17.64 89.92 16.11L89.92 16.11L89.92 16.11Q89.92 14.57 90.87 13.61L90.87 13.61L90.87 13.61Q91.83 12.65 93.30 12.65L93.30 12.65L93.30 12.65Q94.47 12.65 95.28 13.40L95.28 13.40L95.28 13.40Q96.08 14.16 96.08 15.30L96.08 15.30L96.08 15.30Q96.08 15.85 95.20 15.85L95.20 15.85L91.25 15.85L91.25 15.85Q91.26 16.96 91.96 17.72L91.96 17.72L91.96 17.72Q92.67 18.48 93.74 18.48L93.74 18.48L93.74 18.48Q94.45 18.48 95.12 18.06L95.12 18.06L95.12 18.06Q95.48 17.84 95.58 17.84L95.58 17.84L95.58 17.84Q95.68 17.84 95.80 17.94L95.80 17.94L95.80 17.94Q95.93 18.04 95.93 18.18L95.93 18.18L95.93 18.18Q95.93 18.56 95.45 18.88L95.45 18.88L95.45 18.88Q94.96 19.20 94.38 19.35L94.38 19.35L94.38 19.35Q93.80 19.50 93.37 19.50L93.37 19.50L93.37 19.50Q91.81 19.50 90.87 18.57ZM94.82 15.13L94.82 15.13L94.82 15.13Q94.81 14.35 94.41 13.86L94.41 13.86L94.41 13.86Q94.01 13.36 93.25 13.36L93.25 13.36L93.25 13.36Q92.49 13.36 91.92 13.91L91.92 13.91L91.92 13.91Q91.35 14.46 91.31 15.16L91.31 15.16L92.91 15.16L92.91 15.16Q93.98 15.16 94.82 15.13ZM98.88 19.32L98.88 19.32L98.29 19.33L98.29 19.33Q97.40 19.33 97.19 19.05L97.19 19.05L97.19 19.05Q97.09 18.93 97.09 18.75L97.09 18.75L97.09 18.75Q97.09 18.58 97.23 18.51L97.23 18.51L97.23 18.51Q97.36 18.44 97.53 18.44L97.53 18.44L97.53 18.44Q97.70 18.43 97.84 18.33L97.84 18.33L97.84 18.33Q97.97 18.23 97.97 18.01L97.97 18.01L97.97 14.64L97.97 14.64Q97.97 14.03 97.83 13.88L97.83 13.88L97.83 13.88Q97.68 13.74 97.58 13.70L97.58 13.70L97.58 13.70Q97.48 13.66 97.27 13.60L97.27 13.60L97.27 13.60Q97.06 13.54 96.92 13.47L96.92 13.47L96.92 13.47Q96.79 13.41 96.79 13.29L96.79 13.29L96.79 13.29Q96.79 12.74 98.26 12.74L98.26 12.74L98.26 12.74Q98.88 12.74 99.05 12.96L99.05 12.96L99.05 12.96Q99.22 13.17 99.22 13.95L99.22 13.95L99.22 13.95Q99.45 13.36 99.99 13.03L99.99 13.03L99.99 13.03Q100.52 12.69 101.09 12.69L101.09 12.69L101.09 12.69Q101.65 12.69 102.02 12.94L102.02 12.94L102.02 12.94Q102.38 13.18 102.38 13.55L102.38 13.55L102.38 13.55Q102.38 13.92 102.14 14.15L102.14 14.15L102.14 14.15Q101.90 14.37 101.55 14.37L101.55 14.37L101.55 14.37Q101.21 14.37 100.96 14.18L100.96 14.18L100.96 14.18Q100.71 14 100.63 13.71L100.63 13.71L100.63 13.71Q100.45 13.68 100.34 13.68L100.34 13.68L100.34 13.68Q99.27 13.68 99.27 16.13L99.27 16.13L99.27 18.01L99.27 18.01Q99.27 18.41 99.71 18.43L99.71 18.43L99.71 18.43Q100.15 18.46 100.15 18.79L100.15 18.79L100.15 18.79Q100.15 19.16 99.74 19.25L99.74 19.25L99.74 19.25Q99.43 19.32 98.88 19.32Z"></path></g><defs data-v-423bf9ae=""><linearGradient data-v-423bf9ae="" gradientTransform="rotate(25)" id="9e88e06e-f82c-4a51-bce9-79e6e3d320c0" x1="0%" y1="0%" x2="100%" y2="0%"><stop data-v-423bf9ae="" offset="0%" style="stop-color: rgb(0, 118, 221); stop-opacity: 1;"></stop><stop data-v-423bf9ae="" offset="100%" style="stop-color: rgb(0, 205, 233); stop-opacity: 1;"></stop></linearGradient></defs><g data-v-423bf9ae="" id="be30d88e-e657-4d9b-bf97-0b5cfd3a7f17" transform="matrix(1.7716534368768264,0,0,1.7716534368768264,-0.9826678072460595,-42.98267336972023)" stroke="none" fill="url(#9e88e06e-f82c-4a51-bce9-79e6e3d320c0)"><path d="M46.5 75.4v-4.6c0-2 .9-3.9 2.5-5.2 1.4-1.1 2.7-2.1 4-3H11.1V30.8h49.8v7.1c1.4-.7 2.9-1.2 4.5-1.2H67v-5.9c0-3.4-2.8-6.2-6.2-6.2H11.2c-3.4 0-6.2 2.8-6.2 6.2v31.4c0 .8-.3 1.6-.8 2.2L1 68.3c-.2.3-.4.7-.4 1v1.8c0 2.3 1.9 4.2 4.2 4.2h41.7zm-17.2-6.6h13.4v.5c0 1.2-1 2.1-2.1 2.1h-9.1c-1.2 0-2.1-1-2.1-2.1v-.5zm69.1-4.3c.6.5 1 1.3 1 2.2v4H86.2c-.1-2-1-3.9-2.5-5.2-2.2-1.8-4.5-3.3-6.3-4.4 1.6-1 2.8-1.6 3.2-1.8.1 0 .1-.1.1-.2v-5.6c-.7-.5-1.2-1.3-1.2-2.2v-5.8c0-2.9 2.3-5.2 5.2-5.2H86c2.9 0 5.2 2.3 5.2 5.2v5.8c0 .9-.5 1.7-1.2 2.2V59c0 .1.1.2.1.2.8.4 4.7 2.3 8.3 5.3zm-26.8-9v6.4c0 .1.1.2.2.3.9.4 5.4 2.7 9.5 6.1.7.6 1.2 1.5 1.2 2.5v4.6H68.4L67 69c2.8-3.9-.2-4.1-.7-4.1-.5 0-3.6.2-.7 4.1l-1.4 6.4H50v-4.6c0-1 .4-1.9 1.2-2.5 4.1-3.4 8.6-5.7 9.5-6.1.1-.1.2-.2.2-.3v-6.4c-.9-.6-1.4-1.5-1.4-2.5v-6.7c0-3.3 2.7-6 6-6h1.4c3.3 0 6 2.7 6 6V53c.1 1-.5 1.9-1.3 2.5z"></path></g><!----><g data-v-423bf9ae="" id="7027c2c7-89e1-427d-8fc7-234e116641e9" fill="#000000" transform="matrix(1.7804069116785457,0,0,1.7804069116785457,193.79305414759943,57.00891453187428)"><path d="M1.16 7.70C1.16 6.33 1.54 5.22 2.30 4.38C3.06 3.53 4.07 3.11 5.32 3.11C6.51 3.11 7.56 3.54 8.47 4.41L8.47 3.81C7.62 3.06 6.57 2.69 5.32 2.69C3.97 2.69 2.86 3.16 2.00 4.09C1.13 5.03 0.70 6.23 0.70 7.70C0.70 9.17 1.13 10.37 2.00 11.30C2.86 12.24 3.97 12.71 5.32 12.71C6.57 12.71 7.62 12.34 8.47 11.59L8.47 11.03C7.60 11.87 6.55 12.29 5.32 12.29C4.07 12.29 3.06 11.87 2.30 11.03C1.54 10.18 1.16 9.07 1.16 7.70ZM17.22 9.38C17.22 10.36 17.51 11.16 18.08 11.78C18.66 12.40 19.38 12.71 20.26 12.71C21.14 12.71 21.86 12.40 22.43 11.78C23.01 11.16 23.30 10.36 23.30 9.38C23.30 8.40 23.01 7.60 22.43 6.98C21.86 6.36 21.14 6.05 20.26 6.05C19.38 6.05 18.66 6.36 18.08 6.98C17.51 7.60 17.22 8.40 17.22 9.38ZM17.64 9.38C17.64 8.52 17.89 7.82 18.38 7.28C18.88 6.74 19.50 6.47 20.26 6.47C21.01 6.47 21.64 6.74 22.13 7.28C22.63 7.82 22.88 8.52 22.88 9.38C22.88 10.24 22.63 10.94 22.13 11.48C21.64 12.02 21.01 12.29 20.26 12.29C19.50 12.29 18.88 12.02 18.38 11.48C17.89 10.94 17.64 10.24 17.64 9.38ZM31.56 9.38C31.56 10.39 31.85 11.20 32.45 11.80C33.04 12.41 33.78 12.71 34.68 12.71C35.29 12.71 35.83 12.53 36.30 12.17C36.76 11.80 37.09 11.32 37.30 10.72L37.30 12.60L37.72 12.60L37.72 1.68L37.30 1.68L37.30 8.04C37.09 7.44 36.76 6.96 36.30 6.59C35.83 6.23 35.29 6.05 34.68 6.05C33.78 6.05 33.04 6.35 32.45 6.96C31.85 7.56 31.56 8.37 31.56 9.38ZM31.99 9.38C31.99 8.48 32.26 7.77 32.80 7.25C33.33 6.73 33.95 6.47 34.64 6.47C35.40 6.47 36.04 6.75 36.54 7.31C37.04 7.87 37.30 8.56 37.30 9.38C37.30 10.20 37.04 10.89 36.54 11.45C36.04 12.01 35.40 12.29 34.64 12.29C33.95 12.29 33.33 12.03 32.80 11.51C32.26 10.99 31.99 10.28 31.99 9.38ZM47.03 3.15C47.03 3.26 47.06 3.36 47.13 3.43C47.20 3.50 47.30 3.54 47.42 3.54C47.54 3.54 47.63 3.50 47.70 3.43C47.77 3.36 47.81 3.26 47.81 3.15C47.81 3.04 47.77 2.94 47.70 2.87C47.63 2.80 47.54 2.76 47.42 2.76C47.30 2.76 47.20 2.80 47.13 2.87C47.06 2.94 47.03 3.04 47.03 3.15ZM47.21 6.16L47.21 12.60L47.63 12.60L47.63 6.16ZM57.61 8.68C57.61 8.12 57.81 7.61 58.22 7.15C58.63 6.70 59.13 6.47 59.74 6.47C60.79 6.47 61.32 7.16 61.32 8.54L61.32 12.60L61.74 12.60L61.74 8.40C61.74 7.68 61.58 7.11 61.26 6.68C60.95 6.26 60.48 6.05 59.88 6.05C59.29 6.05 58.80 6.19 58.42 6.46C58.04 6.74 57.77 7.12 57.61 7.62L57.61 6.16L57.19 6.16L57.19 12.60L57.61 12.60ZM70.99 9.38C70.99 8.48 71.26 7.77 71.80 7.25C72.34 6.73 72.95 6.47 73.64 6.47C74.41 6.47 75.04 6.75 75.54 7.31C76.05 7.87 76.30 8.56 76.30 9.38C76.30 10.20 76.05 10.89 75.54 11.45C75.04 12.01 74.41 12.29 73.64 12.29C72.95 12.29 72.34 12.03 71.80 11.51C71.26 10.99 70.99 10.28 70.99 9.38ZM70.76 13.02C70.76 13.86 71.01 14.54 71.53 15.05C72.04 15.56 72.73 15.82 73.60 15.82C74.51 15.82 75.26 15.53 75.85 14.95C76.43 14.36 76.72 13.53 76.72 12.46L76.72 6.16L76.30 6.16L76.30 8.04C76.09 7.44 75.76 6.96 75.30 6.59C74.84 6.23 74.30 6.05 73.68 6.05C72.79 6.05 72.04 6.35 71.45 6.96C70.86 7.56 70.56 8.37 70.56 9.38C70.56 10.39 70.86 11.20 71.45 11.80C72.04 12.41 72.79 12.71 73.68 12.71C74.30 12.71 74.84 12.53 75.30 12.17C75.76 11.80 76.09 11.32 76.30 10.72L76.30 12.46C76.30 13.40 76.04 14.13 75.53 14.64C75.02 15.15 74.37 15.40 73.60 15.40C72.86 15.40 72.27 15.18 71.83 14.74C71.40 14.30 71.18 13.73 71.18 13.02ZM96.25 6.16L98.70 13.05L100.73 6.93L102.76 13.05L105.21 6.16L104.75 6.16L102.77 11.90L100.73 5.81L98.69 11.90L96.71 6.16ZM113.61 3.15C113.61 3.26 113.64 3.36 113.72 3.43C113.78 3.50 113.88 3.54 114.00 3.54C114.12 3.54 114.22 3.50 114.29 3.43C114.36 3.36 114.39 3.26 114.39 3.15C114.39 3.04 114.36 2.94 114.29 2.87C114.22 2.80 114.12 2.76 114.00 2.76C113.88 2.76 113.78 2.80 113.72 2.87C113.64 2.94 113.61 3.04 113.61 3.15ZM113.79 6.16L113.79 12.60L114.21 12.60L114.21 6.16ZM123.84 3.92L123.84 6.16L122.79 6.16L122.79 6.58L123.84 6.58L123.84 12.60L124.26 12.60L124.26 6.58L125.31 6.58L125.31 6.16L124.26 6.16L124.26 3.92ZM134.13 8.68C134.13 8.12 134.34 7.61 134.74 7.15C135.15 6.70 135.66 6.47 136.26 6.47C137.32 6.47 137.84 7.16 137.84 8.54L137.84 12.60L138.26 12.60L138.26 8.40C138.26 7.68 138.11 7.11 137.79 6.68C137.47 6.26 137.01 6.05 136.40 6.05C135.81 6.05 135.33 6.19 134.95 6.46C134.56 6.74 134.29 7.12 134.13 7.62L134.13 1.68L133.71 1.68L133.71 12.60L134.13 12.60ZM159.26 8.68C159.26 8.12 159.47 7.61 159.87 7.15C160.28 6.70 160.79 6.47 161.39 6.47C162.45 6.47 162.97 7.16 162.97 8.54L162.97 12.60L163.39 12.60L163.39 8.40C163.39 7.68 163.24 7.11 162.92 6.68C162.60 6.26 162.14 6.05 161.53 6.05C160.94 6.05 160.46 6.19 160.08 6.46C159.69 6.74 159.42 7.12 159.26 7.62L159.26 1.68L158.84 1.68L158.84 12.60L159.26 12.60ZM177.52 9.06L172.68 9.06C172.69 8.38 172.94 7.77 173.43 7.25C173.91 6.73 174.49 6.47 175.17 6.47C175.85 6.47 176.41 6.72 176.85 7.24C177.29 7.75 177.51 8.36 177.52 9.06ZM172.65 9.48L177.95 9.48C177.96 9.43 177.97 9.38 177.97 9.32C177.97 8.33 177.71 7.53 177.19 6.94C176.67 6.34 176.00 6.05 175.17 6.05C174.32 6.05 173.61 6.36 173.05 6.99C172.49 7.61 172.21 8.41 172.21 9.38C172.21 10.33 172.51 11.13 173.10 11.76C173.68 12.39 174.37 12.71 175.17 12.71C176.40 12.71 177.32 12.13 177.93 10.96L177.56 10.74C177.02 11.76 176.23 12.28 175.20 12.28C174.51 12.28 173.91 12.01 173.42 11.47C172.92 10.92 172.67 10.26 172.65 9.48ZM186.62 7.32C186.99 7.03 187.34 6.81 187.66 6.66C187.99 6.51 188.38 6.44 188.86 6.44C190.00 6.44 190.57 6.95 190.57 7.98L190.57 9.13C190.07 8.82 189.45 8.67 188.69 8.67C188.00 8.67 187.41 8.85 186.91 9.21C186.41 9.56 186.16 10.07 186.16 10.71C186.16 11.39 186.37 11.90 186.79 12.24C187.21 12.57 187.71 12.74 188.30 12.74C188.90 12.74 189.39 12.61 189.79 12.35C190.19 12.09 190.45 11.74 190.57 11.31L190.57 12.60L190.99 12.60L190.99 7.98C190.99 7.34 190.82 6.85 190.48 6.52C190.15 6.19 189.61 6.02 188.86 6.02C188.50 6.02 188.15 6.07 187.82 6.18C187.49 6.29 187.23 6.40 187.06 6.50C186.89 6.61 186.67 6.76 186.40 6.96ZM186.59 10.71C186.59 10.20 186.79 9.79 187.19 9.50C187.58 9.21 188.09 9.06 188.69 9.06C189.36 9.06 189.99 9.23 190.57 9.56L190.57 10.36C190.57 10.94 190.35 11.41 189.91 11.79C189.47 12.16 188.96 12.35 188.37 12.35C187.81 12.35 187.37 12.21 187.06 11.93C186.75 11.65 186.59 11.24 186.59 10.71ZM202.89 6.96L203.14 6.57C202.78 6.22 202.42 6.05 202.08 6.05C201.29 6.05 200.79 6.51 200.58 7.43L200.58 6.16L200.16 6.16L200.16 12.60L200.58 12.60L200.58 8.68C200.58 8.17 200.70 7.68 200.96 7.21C201.21 6.74 201.53 6.51 201.92 6.51C202.34 6.51 202.66 6.66 202.89 6.96ZM211.89 3.92L211.89 6.16L210.84 6.16L210.84 6.58L211.89 6.58L211.89 12.60L212.31 12.60L212.31 6.58L213.36 6.58L213.36 6.16L212.31 6.16L212.31 3.92Z"></path></g></svg>